HIERARCHY
ROOT Hip
{
  OFFSET 0.0 0.0 0.0
  CHANNELS 6 Xposition Yposition Zposition Xrotation Yrotation Zrotation
  JOINT LowerSpine
  {
    OFFSET 0.0 0.061367 -0.03653
    CHANNELS 3 Xrotation Yrotation Zrotation
    JOINT MiddleSpine
    {
      OFFSET 0.0 0.056002 0.002633
      CHANNELS 3 Xrotation Yrotation Zrotation
      JOINT Chest
      {
        OFFSET 0.0 0.069296 -0.013882
        CHANNELS 3 Xrotation Yrotation Zrotation
        JOINT Neck
        {
          OFFSET 0.0 0.156156 -0.002923
          CHANNELS 3 Xrotation Yrotation Zrotation
          JOINT Head
          {
            OFFSET 0.0 0.088183 0.023986
            CHANNELS 3 Xrotation Yrotation Zrotation
            End Site
            {
              OFFSET 1e-06 0.123215 0.003678
            }
          }
        }
        JOINT LClavicle
        {
          OFFSET 0.014189 0.150698 0.046467
          CHANNELS 3 Xrotation Yrotation Zrotation
          JOINT LShoulder
          {
            OFFSET 0.082893 0.021616 -0.034976
            CHANNELS 3 Xrotation Yrotation Zrotation
            JOINT LForearm
            {
              OFFSET 0.195645 -0.000695 -0.001695
              CHANNELS 3 Xrotation Yrotation Zrotation
              JOINT LHand
              {
                OFFSET 0.163209 0.000474 -0.000977
                CHANNELS 3 Xrotation Yrotation Zrotation
                End Site
                {
                  OFFSET 0.0 0.006864 0.0
                }
              }
            }
          }
        }
        JOINT RClavicle
        {
          OFFSET -0.014189 0.150698 0.046467
          CHANNELS 3 Xrotation Yrotation Zrotation
          JOINT RShoulder
          {
            OFFSET -0.082908 0.021619 -0.034982
            CHANNELS 3 Xrotation Yrotation Zrotation
            JOINT RForearm
            {
              OFFSET -0.195645 -0.000695 -0.001695
              CHANNELS 3 Xrotation Yrotation Zrotation
              JOINT RHand
              {
                OFFSET -0.163209 0.000474 -0.000977
                CHANNELS 3 Xrotation Yrotation Zrotation
                End Site
                {
                  OFFSET 0.0 0.006864 0.0
                }
              }
            }
          }
        }
      }
    }
  }
  JOINT RThigh
  {
    OFFSET -0.072558 0.02774 -0.005953
    CHANNELS 3 Xrotation Yrotation Zrotation
    JOINT RShin
    {
      OFFSET -0.005253 -0.285537 0.0
      CHANNELS 3 Xrotation Yrotation Zrotation
      JOINT RFoot
      {
        OFFSET 0.0 -0.28038 0.0
        CHANNELS 3 Xrotation Yrotation Zrotation
        JOINT RToe
        {
          OFFSET 0.0 -0.030816 0.064441
          CHANNELS 3 Xrotation Yrotation Zrotation
          End Site
          {
            OFFSET 0.0 0.0 0.043231
          }
        }
      }
    }
  }
  JOINT LThigh
  {
    OFFSET 0.072557 0.027741 -0.005953
    CHANNELS 3 Xrotation Yrotation Zrotation
    JOINT LShin
    {
      OFFSET 0.005253 -0.285539 0.0
      CHANNELS 3 Xrotation Yrotation Zrotation
      JOINT LFoot
      {
        OFFSET 0.0 -0.28038 0.0
        CHANNELS 3 Xrotation Yrotation Zrotation
        JOINT LToe
        {
          OFFSET 0.0 -0.030816 0.064441
          CHANNELS 3 Xrotation Yrotation Zrotation
          End Site
          {
            OFFSET 0.0 0.0 0.043231
          }
        }
      }
    }
  }
}
MOTION
Frames: 13
Frame Time: 0.03333333333333333
-0.080475 0.557146 -0.072102 9.646791 2.749792 10.481483 -0.724869 10.679834 -14.695293 -0.285498 -3.299048 -18.1513 -4.307101 -8.726602 9.710293 -3.68386 -18.21648 4.485496 -12.638928 16.692076 5.220531 -13.007596 11.364584 -1.282673 18.307558 -14.21625 -37.230236 -3.024237 -40.548206 -17.991692 -13.291985 -11.285463 9.03102 6.603462 15.037012 18.296928 9.470152 20.557356 39.656685 -2.820612 38.085812 16.39258 16.237049 5.707681 9.92391 -24.125946 -0.339138 -18.863865 13.790742 1.631479 18.442949 -11.149897 0.837126 16.483376 5.445871 -15.677644 -9.467083 -18.768135 6.963139 -3.050404 8.871853 17.60993 6.781818 3.825136 0.214293 -17.535553 -12.399594 14.56082 6.635666 
-0.089646 0.554049 -0.082501 8.575085 5.136152 11.65093 0.510442 9.915019 -16.829634 -2.547895 -4.326185 -19.297409 -3.535149 -10.497902 12.37799 -1.517024 -18.503191 3.614027 -10.366191 17.741079 5.633481 -16.292023 7.692645 -0.490878 18.650324 -10.862866 -35.697033 -5.099613 -37.754017 -19.771061 -12.121227 -12.238932 9.929492 2.542626 19.765453 18.505547 11.139427 15.713646 38.758755 -3.395525 41.487835 17.625349 17.055603 6.67135 9.206045 -23.244101 -2.636274 -19.256435 13.714837 0.690445 17.678717 -11.119882 2.867135 16.390221 5.672492 -16.717758 -9.418355 -19.559404 8.927849 -5.235159 10.201225 15.919195 9.495865 1.850529 -2.851908 -18.429539 -11.839895 15.757742 7.166938 
-0.101159 0.558796 -0.076272 7.232255 7.009851 12.48358 0.26088 10.287651 -18.580278 -1.992956 -4.61623 -19.973686 -2.873273 -11.841027 13.451038 -1.329349 -19.517372 3.40404 -9.164933 18.721777 5.689966 -17.034359 8.359034 -0.177205 18.552378 -10.064269 -35.899849 -5.910034 -36.512928 -20.933804 -11.947092 -12.667085 10.603938 3.021032 21.180174 18.801607 10.899423 13.910974 38.479233 -8.466418 46.252296 20.795063 17.610594 6.664917 9.297896 -20.309952 -4.171145 -20.039351 10.871335 1.500053 18.276892 -11.513288 3.438006 17.842234 6.250321 -16.995575 -9.803555 -17.327717 8.219411 -6.422136 9.405154 15.856122 10.941777 2.256963 -2.008326 -18.962069 -11.715691 16.468153 7.704857 
-0.104529 0.566032 -0.067155 6.720309 7.667355 12.167018 0.05084 9.715118 -19.537035 -2.106998 -4.323977 -19.829899 -3.170499 -12.202127 14.017386 -0.407699 -19.405611 3.551248 -8.653708 18.834023 5.633843 -16.464323 9.203915 -0.359362 17.489246 -9.344088 -37.691196 -6.619866 -34.244503 -20.330984 -11.835673 -12.592744 10.729542 4.471132 20.577505 18.769968 9.170218 11.243823 39.216618 -14.597207 50.734268 22.977636 17.583769 6.493274 9.239691 -18.655582 -5.358424 -19.440777 9.37308 1.514201 18.456432 -11.252192 2.881429 18.193796 6.391873 -16.895622 -9.852439 -15.457831 6.868211 -7.153409 7.554765 15.195262 12.148284 2.902158 -0.391141 -18.38451 -11.441496 16.492582 7.904234 
-0.106962 0.569172 -0.060366 6.663333 7.636265 11.262992 -0.450663 8.90298 -19.792294 -2.310649 -4.230359 -19.112358 -3.863945 -12.161752 14.247117 -0.026339 -19.114761 3.941747 -8.108576 18.618359 5.574591 -15.590248 9.784219 -0.68619 17.17543 -9.229694 -39.527039 -6.927109 -32.35318 -19.531729 -11.780644 -12.295233 10.564564 6.319771 19.68816 17.921925 7.381666 8.944534 39.603199 -22.931852 55.828175 25.352322 17.270693 6.16262 9.136387 -17.401211 -5.93082 -18.405291 7.590475 1.877617 18.472425 -10.841852 2.684694 18.566023 6.589537 -16.477205 -9.758577 -14.556641 4.951496 -7.139777 6.248152 14.418873 12.67602 3.340472 1.380543 -17.508322 -11.151303 16.188356 7.942458 
-0.106482 0.570012 -0.052071 7.204008 8.081006 10.501561 -1.606228 8.540619 -19.670563 -2.305562 -4.170376 -18.890671 -4.410972 -12.627838 14.090518 -0.01211 -18.999832 4.116063 -7.656301 18.633078 5.671759 -14.524632 10.8596 -1.342392 17.022886 -8.869455 -40.788555 -7.372195 -30.511097 -19.123079 -11.739453 -12.189051 10.515018 8.750192 18.211042 17.113293 5.225681 7.410504 39.003139 -35.90292 62.467258 30.853338 17.124683 5.957242 9.184743 -15.688424 -5.940835 -17.689907 5.617771 2.675791 18.305946 -10.705915 2.072623 18.862665 6.812833 -16.244017 -9.710269 -14.187243 2.829733 -6.994999 4.816741 14.109285 13.072462 4.166696 3.673988 -16.630623 -11.21511 15.962475 8.040507 
-0.100372 0.569503 -0.044651 7.838727 8.765327 9.709597 -3.306859 8.612503 -19.062639 -2.070198 -4.104035 -18.946486 -4.329722 -12.9825 14.187334 -0.277677 -19.07493 3.714299 -6.972087 18.83387 5.791276 -13.240294 12.144485 -2.620168 16.776213 -8.458785 -41.820095 -7.802915 -28.927645 -19.097059 -11.67873 -12.197177 10.645137 11.357679 16.107996 16.656073 2.73387 6.283263 37.889999 -58.354809 69.58284 43.808353 17.130228 5.799939 9.256875 -13.989584 -5.710814 -17.416109 3.234021 4.323963 17.683212 -10.722385 0.871738 18.985071 7.150033 -16.105604 -9.711904 -13.426015 1.100082 -7.190541 3.118731 14.368302 13.259527 4.799734 6.12396 -15.714121 -11.342148 15.888215 8.163094 
-0.088516 0.566616 -0.034925 8.463867 9.047743 8.982689 -5.612163 9.34213 -17.554569 -1.420185 -3.828145 -19.181305 -3.666544 -13.63612 14.378392 -1.441712 -19.385012 2.60374 -6.251723 19.18545 5.847662 -11.838851 13.555573 -4.588342 17.054657 -8.466332 -42.696396 -8.043726 -27.255808 -19.473713 -11.624218 -12.249484 10.901642 14.049585 13.707 16.130688 -0.874046 6.054742 35.541851 -100.008606 75.098747 74.878433 17.267969 5.616232 9.35526 -12.076377 -5.057827 -17.192518 0.399771 7.033568 16.23077 -10.446528 -0.334962 19.24745 7.581279 -15.982228 -9.752271 -12.121368 -0.216765 -7.689778 1.256115 15.3062 12.771298 5.136143 8.843728 -14.580661 -11.550926 15.869673 8.285461 
-0.076603 0.566765 -0.02186 9.211114 10.028196 8.875719 -8.192996 10.254723 -15.855327 -0.753351 -3.384031 -19.769831 -3.480052 -14.286598 14.320951 -2.37062 -19.935244 1.388662 -5.752761 19.752028 5.844107 -10.34259 15.15689 -7.03646 17.428703 -7.722751 -42.957653 -8.669015 -26.360777 -20.248171 -11.76845 -12.393553 11.223267 16.150866 10.779583 16.415648 -4.297564 6.44005 32.947151 -139.972534 74.562843 107.769852 17.645235 5.501605 9.497953 -11.057235 -4.615364 -17.440638 -1.274973 10.164434 14.40008 -10.026729 -2.114936 19.346907 7.964867 -16.098562 -9.852927 -10.662162 -0.554127 -9.045162 -0.766456 16.830294 12.121973 5.801733 11.373656 -13.58409 -11.83208 16.048916 8.460874 
-0.066211 0.56928 -0.015718 9.857459 10.365634 8.804268 -9.982425 11.031083 -14.449242 -0.435791 -3.258205 -20.248783 -3.755555 -14.890666 14.165271 -2.483643 -20.351225 0.637955 -5.400935 20.24964 5.931549 -9.234205 16.299875 -9.369115 18.199436 -7.232124 -42.896938 -8.822306 -26.105417 -20.911398 -11.820167 -12.56393 11.59259 17.286654 8.375206 16.755688 -6.906318 7.846735 30.552 -158.253159 72.171494 122.244949 17.999668 5.502037 9.605781 -10.755185 -4.510283 -17.495165 -2.706656 12.666532 12.719385 -9.392415 -3.759792 19.280598 8.501862 -16.2463 -9.927347 -9.954871 -0.511882 -10.1779 -2.14026 18.139574 11.631858 6.343446 13.260049 -12.714285 -12.046698 16.297506 8.613825 
-0.05734 0.571462 -0.012333 10.482918 10.693462 8.804041 -11.308649 11.634726 -13.450891 -0.29148 -3.437278 -20.666744 -4.40972 -15.639386 14.038438 -2.356398 -20.737518 0.148472 -5.109351 20.768156 6.094169 -8.195214 17.484859 -11.321322 18.931137 -7.121601 -42.640278 -8.615109 -25.833212 -21.538311 -11.821735 -12.844878 11.99512 18.039833 6.62465 16.841501 -8.832582 9.860872 27.943672 -167.210327 70.0103 129.058167 18.408632 5.561744 9.738233 -10.661513 -4.652508 -17.699781 -3.573218 14.452802 11.501718 -8.649047 -5.090017 19.312687 8.946862 -16.512701 -10.006424 -9.791476 -0.462991 -11.107335 -2.963851 19.095776 11.306503 6.987304 14.617023 -12.170697 -12.346814 16.589487 8.77595 
-0.049192 0.573381 -0.010479 10.868634 10.838631 8.701083 -12.085891 11.9937 -12.802211 -0.20899 -3.55093 -20.902031 -4.912259 -16.162657 14.050028 -2.125473 -20.92635 -0.17987 -4.878062 21.130121 6.160423 -7.344108 18.413383 -12.90151 19.407215 -7.107331 -42.600533 -8.486245 -25.653704 -21.992689 -11.760335 -13.052372 12.298447 18.50725 5.252996 16.620844 -10.512487 11.799936 25.842543 -170.748413 68.831451 131.464676 18.696032 5.598516 9.804084 -10.488811 -4.727636 -17.906395 -3.881247 15.572915 10.741165 -7.911068 -6.070747 19.292179 9.260827 -16.694017 -10.000336 -9.690063 -0.288261 -11.741723 -3.429691 19.710325 11.08059 7.567394 15.564408 -11.747239 -12.611095 16.772266 8.862482 
-0.04271 0.574454 -0.009213 11.093108 10.856193 8.576822 -12.609296 12.18219 -12.30229 -0.128895 -3.614548 -21.016846 -5.366861 -16.491571 13.955154 -1.857151 -20.96768 -0.409847 -4.718444 21.328802 6.189786 -6.653777 19.023987 -14.087379 19.736712 -7.165739 -42.591377 -8.389876 -25.580332 -22.265921 -11.721401 -13.159209 12.475614 18.726147 4.180469 16.294434 -11.830352 13.555759 24.286648 -172.867538 68.127487 132.819611 18.85618 5.612574 9.821413 -10.348266 -4.792935 -18.000633 -3.880026 16.182903 10.138703 -7.30869 -6.746357 19.213806 9.467166 -16.788734 -9.966575 -9.632966 -0.111641 -12.120001 -3.619022 20.011574 10.891045 7.984139 16.196072 -11.394576 -12.782058 16.854174 8.897129 
